<?xml version="1.0" encoding="UTF-8"?>
<!DOCTYPE svg PUBLIC "-//W3C//DTD SVG 1.1//EN" "http://www.w3.org/Graphics/SVG/1.1/DTD/svg11.dtd">
<svg xmlns="http://www.w3.org/2000/svg" version="1.1" width="981px" height="886px" style="shape-rendering:geometricPrecision; text-rendering:geometricPrecision; image-rendering:optimizeQuality; fill-rule:evenodd; clip-rule:evenodd" xmlns:xlink="http://www.w3.org/1999/xlink">
<g><path style="opacity:1" fill="#060606" d="M 57.5,-0.5 C 98.5,-0.5 139.5,-0.5 180.5,-0.5C 192.404,0.896789 203.404,4.89679 213.5,11.5C 213.821,13.0481 214.821,13.7148 216.5,13.5C 220.238,15.697 223.571,18.3637 226.5,21.5C 226.973,22.9063 227.973,23.573 229.5,23.5C 229.738,25.4044 230.738,26.7377 232.5,27.5C 232.427,29.0269 233.094,30.0269 234.5,30.5C 234.427,32.0269 235.094,33.0269 236.5,33.5C 238.559,36.6106 240.392,39.9439 242,43.5C 244.821,51.7861 247.488,60.1194 250,68.5C 253.68,90.4254 256.846,112.425 259.5,134.5C 259.5,135.5 259.5,136.5 259.5,137.5C 475.5,137.5 691.5,137.5 907.5,137.5C 923.415,138.361 938.081,143.028 951.5,151.5C 952.035,153.446 953.368,154.446 955.5,154.5C 959.12,156.453 962.12,159.119 964.5,162.5C 964.738,164.404 965.738,165.738 967.5,166.5C 971.304,170.084 974.137,174.417 976,179.5C 977.964,185.52 979.464,191.52 980.5,197.5C 980.5,200.5 980.5,203.5 980.5,206.5C 979.654,216.212 977.82,225.879 975,235.5C 951.136,302.758 927.469,370.091 904,437.5C 896.764,460.494 884.597,480.328 867.5,497C 853.204,508.477 836.871,514.977 818.5,516.5C 656.833,516.5 495.167,516.5 333.5,516.5C 333.263,517.791 333.596,518.791 334.5,519.5C 337.035,531.043 339.035,542.71 340.5,554.5C 495.83,556.499 651.496,557.165 807.5,556.5C 819.335,556.542 830.335,559.542 840.5,565.5C 841.035,567.446 842.368,568.446 844.5,568.5C 848.456,570.788 851.789,573.788 854.5,577.5C 854.427,579.027 855.094,580.027 856.5,580.5C 856.427,582.027 857.094,583.027 858.5,583.5C 858.427,585.027 859.094,586.027 860.5,586.5C 862.065,588.509 863.065,590.843 863.5,593.5C 863.41,596.152 864.076,598.485 865.5,600.5C 870.558,624.374 866.058,646.374 852,666.5C 839.7,679.549 824.533,685.882 806.5,685.5C 801.821,685.334 797.155,685.501 792.5,686C 793.044,686.717 793.711,687.217 794.5,687.5C 801.398,691.726 807.398,697.059 812.5,703.5C 812.738,705.404 813.738,706.738 815.5,707.5C 816.833,708.167 817.833,709.167 818.5,710.5C 818.427,712.027 819.094,713.027 820.5,713.5C 822.547,715.55 824.214,717.883 825.5,720.5C 825.427,722.027 826.094,723.027 827.5,723.5C 828.338,723.842 828.672,724.508 828.5,725.5C 828.427,727.027 829.094,728.027 830.5,728.5C 833.237,731.983 834.903,735.983 835.5,740.5C 835.41,743.152 836.076,745.485 837.5,747.5C 849.316,799.687 832.983,840.521 788.5,870C 774.516,877.492 759.849,882.659 744.5,885.5C 734.5,885.5 724.5,885.5 714.5,885.5C 712.285,884.732 709.952,884.065 707.5,883.5C 705.485,882.076 703.152,881.41 700.5,881.5C 699.833,881.5 699.167,881.5 698.5,881.5C 697.365,879.787 695.698,879.12 693.5,879.5C 687.864,877.678 682.531,875.345 677.5,872.5C 677.027,871.094 676.027,870.427 674.5,870.5C 673.508,870.672 672.842,870.338 672.5,869.5C 672.027,868.094 671.027,867.427 669.5,867.5C 667.973,867.573 666.973,866.906 666.5,865.5C 666.027,864.094 665.027,863.427 663.5,863.5C 662.738,861.738 661.404,860.738 659.5,860.5C 658.833,860.5 658.5,860.167 658.5,859.5C 657.738,857.738 656.404,856.738 654.5,856.5C 622.67,824.86 612.504,787.194 624,743.5C 626.565,737.269 629.398,731.269 632.5,725.5C 633.906,725.027 634.573,724.027 634.5,722.5C 634.328,721.508 634.662,720.842 635.5,720.5C 636.906,720.027 637.573,719.027 637.5,717.5C 639.016,714.467 641.016,711.8 643.5,709.5C 645.262,708.738 646.262,707.404 646.5,705.5C 648.5,702.833 650.833,700.5 653.5,698.5C 655.5,697.167 657.167,695.5 658.5,693.5C 658.5,692.833 658.833,692.5 659.5,692.5C 661.749,691.92 663.415,690.587 664.5,688.5C 664.5,687.833 664.833,687.5 665.5,687.5C 666.756,687.539 667.756,687.039 668.5,686C 579.167,685.333 489.833,685.333 400.5,686C 401.044,686.717 401.711,687.217 402.5,687.5C 408.391,690.719 413.391,695.052 417.5,700.5C 417.427,702.027 418.094,703.027 419.5,703.5C 420.833,704.167 421.833,705.167 422.5,706.5C 422.427,708.027 423.094,709.027 424.5,709.5C 426.262,710.262 427.262,711.596 427.5,713.5C 427.427,715.027 428.094,716.027 429.5,716.5C 429.427,718.027 430.094,719.027 431.5,719.5C 452.166,755.078 452.666,791.078 433,827.5C 413.994,859.608 385.827,878.108 348.5,883C 329.273,885.063 310.606,882.729 292.5,876C 287.113,873.646 282.113,870.812 277.5,867.5C 277.027,866.094 276.027,865.427 274.5,865.5C 274.027,864.094 273.027,863.427 271.5,863.5C 269.596,863.262 268.262,862.262 267.5,860.5C 267.027,859.094 266.027,858.427 264.5,858.5C 263.5,858.167 262.833,857.5 262.5,856.5C 261.738,854.738 260.404,853.738 258.5,853.5C 253.563,849.618 249.563,844.952 246.5,839.5C 246.446,837.368 245.446,836.035 243.5,835.5C 242.599,834.71 241.932,833.71 241.5,832.5C 241.715,830.821 241.048,829.821 239.5,829.5C 221.394,795.983 219.894,761.65 235,726.5C 236.524,724.102 238.024,721.769 239.5,719.5C 240.906,719.027 241.573,718.027 241.5,716.5C 242.906,716.027 243.573,715.027 243.5,713.5C 243.738,711.596 244.738,710.262 246.5,709.5C 247.906,709.027 248.573,708.027 248.5,706.5C 249.167,705.167 250.167,704.167 251.5,703.5C 253.262,702.738 254.262,701.404 254.5,699.5C 254.833,698.5 255.5,697.833 256.5,697.5C 258.749,696.92 260.415,695.587 261.5,693.5C 261.5,692.833 261.833,692.5 262.5,692.5C 264.404,692.262 265.738,691.262 266.5,689.5C 268.027,689.573 269.027,688.906 269.5,687.5C 271.404,687.262 272.738,686.262 273.5,684.5C 273.953,683.542 274.619,682.708 275.5,682C 266.318,678.956 258.318,674.123 251.5,667.5C 251.027,666.094 250.027,665.427 248.5,665.5C 242.549,660.248 237.549,654.248 233.5,647.5C 233.446,645.368 232.446,644.035 230.5,643.5C 230.167,642.833 229.833,642.167 229.5,641.5C 229.715,639.821 229.048,638.821 227.5,638.5C 217.368,621.885 210.868,603.885 208,584.5C 180.1,440.5 152.267,296.5 124.5,152.5C 103.497,152.667 82.4974,152.5 61.5,152C 52.9467,151.209 45.2801,148.375 38.5,143.5C 38.0269,142.094 37.0269,141.427 35.5,141.5C 34.8333,141.5 34.5,141.167 34.5,140.5C 34.0269,139.094 33.0269,138.427 31.5,138.5C 29.5,137.167 27.8333,135.5 26.5,133.5C 25.7377,131.738 24.4044,130.738 22.5,130.5C 17.733,126.231 13.8996,121.231 11,115.5C 8.33333,108.833 5.66667,102.167 3,95.5C 1.87517,90.3543 0.708503,85.3543 -0.5,80.5C -0.5,71.1667 -0.5,61.8333 -0.5,52.5C 0.984201,44.5822 3.9842,37.2489 8.5,30.5C 9.90632,30.0269 10.573,29.0269 10.5,27.5C 10.7376,25.5956 11.7376,24.2623 13.5,23.5C 15.2624,22.7377 16.2624,21.4044 16.5,19.5C 16.8333,18.5 17.5,17.8333 18.5,17.5C 20.4044,17.2624 21.7377,16.2624 22.5,14.5C 24.0269,14.573 25.0269,13.9063 25.5,12.5C 35.2801,5.94191 45.9468,1.60858 57.5,-0.5 Z M 191.5,51.5 C 192.262,53.2624 193.596,54.2624 195.5,54.5C 200.058,63.6987 203.558,73.3654 206,83.5C 209.905,110.504 213.905,137.504 218,164.5C 219.114,169.431 221.614,173.431 225.5,176.5C 225.973,177.906 226.973,178.573 228.5,178.5C 230.995,180.714 233.995,181.881 237.5,182C 459.5,182.333 681.5,182.667 903.5,183C 912.059,183.798 920.059,186.298 927.5,190.5C 928.5,192.167 929.833,193.5 931.5,194.5C 934.961,200.873 935.461,207.539 933,214.5C 929.261,225.883 925.428,237.216 921.5,248.5C 920.463,249.93 919.796,251.597 919.5,253.5C 917.637,258.421 915.971,263.421 914.5,268.5C 913.463,269.93 912.796,271.597 912.5,273.5C 909.971,280.421 907.637,287.421 905.5,294.5C 904.463,295.93 903.796,297.597 903.5,299.5C 897.971,314.753 892.638,330.087 887.5,345.5C 886.463,346.93 885.796,348.597 885.5,350.5C 881.107,362.013 877.107,373.679 873.5,385.5C 872.463,386.93 871.796,388.597 871.5,390.5C 871.5,390.833 871.5,391.167 871.5,391.5C 870.463,392.93 869.796,394.597 869.5,396.5C 863.9,416.141 856.067,434.808 846,452.5C 843.665,455.665 841.165,458.665 838.5,461.5C 836.973,461.427 835.973,462.094 835.5,463.5C 829.339,467.277 822.672,469.777 815.5,471C 645.167,471.333 474.833,471.667 304.5,472C 300.475,472.183 297.142,473.683 294.5,476.5C 292.973,476.427 291.973,477.094 291.5,478.5C 290.094,478.973 289.427,479.973 289.5,481.5C 286.176,485.075 284.51,489.408 284.5,494.5C 289.558,524.517 294.725,554.517 300,584.5C 303.04,593.542 309.207,599.042 318.5,601C 482.167,601.333 645.833,601.667 809.5,602C 812.292,602.542 814.958,603.376 817.5,604.5C 818.167,605.833 819.167,606.833 820.5,607.5C 823.272,617.558 822.105,627.225 817,636.5C 816.005,637.066 815.172,637.733 814.5,638.5C 811.311,638.858 808.311,639.525 805.5,640.5C 636.833,640.667 468.166,640.5 299.5,640C 295.057,639.472 290.723,638.472 286.5,637C 283.271,634.259 279.938,631.759 276.5,629.5C 276.573,627.973 275.906,626.973 274.5,626.5C 273.066,623.953 271.4,621.619 269.5,619.5C 269.573,617.973 268.906,616.973 267.5,616.5C 264.362,609.552 261.195,602.552 258,595.5C 255.842,587.203 253.842,578.87 252,570.5C 223.128,421.14 194.128,271.807 165,122.5C 162.167,115.667 157.333,110.833 150.5,108C 124.167,107.667 97.8333,107.333 71.5,107C 66.7579,107.266 62.7579,105.766 59.5,102.5C 57.5,99.8333 55.1667,97.5 52.5,95.5C 50.2388,89.885 48.0721,84.2183 46,78.5C 43.2036,69.0002 44.2036,60.0002 49,51.5C 52.6355,49.2657 56.4689,47.4323 60.5,46C 99.5,45.3333 138.5,45.3333 177.5,46C 182.529,47.0186 187.196,48.8519 191.5,51.5 Z M 352.5,712.5 C 354.515,713.924 356.848,714.59 359.5,714.5C 362.314,716.07 365.314,717.403 368.5,718.5C 368.973,719.906 369.973,720.573 371.5,720.5C 379.848,726.516 386.848,733.849 392.5,742.5C 392.932,743.71 393.599,744.71 394.5,745.5C 404.37,766.169 403.704,786.502 392.5,806.5C 391.094,806.973 390.427,807.973 390.5,809.5C 389.094,809.973 388.427,810.973 388.5,812.5C 385.862,815.474 383.195,818.474 380.5,821.5C 378.596,821.738 377.262,822.738 376.5,824.5C 374.973,824.427 373.973,825.094 373.5,826.5C 350.339,841.053 326.673,842.053 302.5,829.5C 301.71,828.599 300.71,827.932 299.5,827.5C 295.833,824.833 292.167,822.167 288.5,819.5C 288.262,817.596 287.262,816.262 285.5,815.5C 284.396,813.611 283.063,811.945 281.5,810.5C 281.573,808.973 280.906,807.973 279.5,807.5C 278.105,803.71 276.438,800.043 274.5,796.5C 274.204,794.597 273.537,792.93 272.5,791.5C 265.999,751.874 281.666,725.708 319.5,713C 330.477,711.198 341.477,711.031 352.5,712.5 Z M 766.5,722.5 C 767.262,724.262 768.596,725.262 770.5,725.5C 775.195,730.526 779.861,735.526 784.5,740.5C 785.026,742.23 786.026,743.564 787.5,744.5C 787.833,745.167 788.167,745.833 788.5,746.5C 788.932,747.71 789.599,748.71 790.5,749.5C 798.482,768.273 798.149,786.94 789.5,805.5C 788.094,805.973 787.427,806.973 787.5,808.5C 786.094,808.973 785.427,809.973 785.5,811.5C 783.367,813.091 781.701,815.091 780.5,817.5C 778.738,818.262 777.738,819.596 777.5,821.5C 776.5,821.833 775.833,822.5 775.5,823.5C 773.596,823.738 772.262,824.738 771.5,826.5C 742.372,845.856 714.039,844.856 686.5,823.5C 685.5,821.833 684.167,820.5 682.5,819.5C 680.823,817.46 679.156,815.46 677.5,813.5C 677.573,811.973 676.906,810.973 675.5,810.5C 657.803,777.774 663.136,749.274 691.5,725C 715.979,710.529 740.979,709.695 766.5,722.5 Z"/></g>
<g><path style="opacity:1" fill="#777777" d="M 213.5,11.5 C 214.71,11.9321 215.71,12.5987 216.5,13.5C 214.821,13.7148 213.821,13.0481 213.5,11.5 Z"/></g>
<g><path style="opacity:1" fill="#878787" d="M 25.5,12.5 C 25.0269,13.9063 24.0269,14.573 22.5,14.5C 22.9731,13.0937 23.9731,12.427 25.5,12.5 Z"/></g>
<g><path style="opacity:1" fill="#818181" d="M 22.5,14.5 C 21.7377,16.2624 20.4044,17.2624 18.5,17.5C 19.2623,15.7376 20.5956,14.7376 22.5,14.5 Z"/></g>
<g><path style="opacity:1" fill="#888888" d="M 16.5,19.5 C 16.2624,21.4044 15.2624,22.7377 13.5,23.5C 13.7376,21.5956 14.7376,20.2623 16.5,19.5 Z"/></g>
<g><path style="opacity:1" fill="#c3c3c3" d="M 226.5,21.5 C 228.027,21.427 229.027,22.0937 229.5,23.5C 227.973,23.573 226.973,22.9063 226.5,21.5 Z"/></g>
<g><path style="opacity:1" fill="#a2a2a2" d="M 229.5,23.5 C 231.262,24.2623 232.262,25.5956 232.5,27.5C 230.738,26.7377 229.738,25.4044 229.5,23.5 Z"/></g>
<g><path style="opacity:1" fill="#878787" d="M 10.5,27.5 C 10.573,29.0269 9.90632,30.0269 8.5,30.5C 8.42702,28.9731 9.09368,27.9731 10.5,27.5 Z"/></g>
<g><path style="opacity:1" fill="#898989" d="M 232.5,27.5 C 233.906,27.9731 234.573,28.9731 234.5,30.5C 233.094,30.0269 232.427,29.0269 232.5,27.5 Z"/></g>
<g><path style="opacity:1" fill="#a1a1a1" d="M 234.5,30.5 C 235.906,30.9731 236.573,31.9731 236.5,33.5C 235.094,33.0269 234.427,32.0269 234.5,30.5 Z"/></g>
<g><path style="opacity:1" fill="#7f7f7f" d="M 191.5,51.5 C 193.404,51.7376 194.738,52.7376 195.5,54.5C 193.596,54.2624 192.262,53.2624 191.5,51.5 Z"/></g>
<g><path style="opacity:1" fill="#a1a1a1" d="M 52.5,95.5 C 55.1667,97.5 57.5,99.8333 59.5,102.5C 56.1667,101.167 53.8333,98.8333 52.5,95.5 Z"/></g>
<g><path style="opacity:1" fill="#a2a2a2" d="M 22.5,130.5 C 24.4044,130.738 25.7377,131.738 26.5,133.5C 24.5956,133.262 23.2623,132.262 22.5,130.5 Z"/></g>
<g><path style="opacity:1" fill="#242424" d="M 259.5,134.5 C 475.459,136.165 691.459,137.165 907.5,137.5C 691.5,137.5 475.5,137.5 259.5,137.5C 259.5,136.5 259.5,135.5 259.5,134.5 Z"/></g>
<g><path style="opacity:1" fill="#878787" d="M 31.5,138.5 C 33.0269,138.427 34.0269,139.094 34.5,140.5C 32.9731,140.573 31.9731,139.906 31.5,138.5 Z"/></g>
<g><path style="opacity:1" fill="#8d8d8d" d="M 35.5,141.5 C 37.0269,141.427 38.0269,142.094 38.5,143.5C 36.9731,143.573 35.9731,142.906 35.5,141.5 Z"/></g>
<g><path style="opacity:1" fill="#808080" d="M 951.5,151.5 C 953.23,152.026 954.564,153.026 955.5,154.5C 953.368,154.446 952.035,153.446 951.5,151.5 Z"/></g>
<g><path style="opacity:1" fill="#828282" d="M 964.5,162.5 C 966.262,163.262 967.262,164.596 967.5,166.5C 965.738,165.738 964.738,164.404 964.5,162.5 Z"/></g>
<g><path style="opacity:1" fill="#979797" d="M 225.5,176.5 C 227.027,176.427 228.027,177.094 228.5,178.5C 226.973,178.573 225.973,177.906 225.5,176.5 Z"/></g>
<g><path style="opacity:1" fill="#929292" d="M 927.5,190.5 C 929.833,190.833 931.167,192.167 931.5,194.5C 929.833,193.5 928.5,192.167 927.5,190.5 Z"/></g>
<g><path style="opacity:1" fill="#767676" d="M 921.5,248.5 C 921.88,250.698 921.213,252.365 919.5,253.5C 919.796,251.597 920.463,249.93 921.5,248.5 Z"/></g>
<g><path style="opacity:1" fill="#7f7f7f" d="M 914.5,268.5 C 914.88,270.698 914.213,272.365 912.5,273.5C 912.796,271.597 913.463,269.93 914.5,268.5 Z"/></g>
<g><path style="opacity:1" fill="#7b7b7b" d="M 905.5,294.5 C 905.88,296.698 905.213,298.365 903.5,299.5C 903.796,297.597 904.463,295.93 905.5,294.5 Z"/></g>
<g><path style="opacity:1" fill="#787878" d="M 887.5,345.5 C 887.88,347.698 887.213,349.365 885.5,350.5C 885.796,348.597 886.463,346.93 887.5,345.5 Z"/></g>
<g><path style="opacity:1" fill="#7f7f7f" d="M 873.5,385.5 C 873.88,387.698 873.213,389.365 871.5,390.5C 871.796,388.597 872.463,386.93 873.5,385.5 Z"/></g>
<g><path style="opacity:1" fill="#767676" d="M 871.5,391.5 C 871.88,393.698 871.213,395.365 869.5,396.5C 869.796,394.597 870.463,392.93 871.5,391.5 Z"/></g>
<g><path style="opacity:1" fill="#868686" d="M 838.5,461.5 C 838.027,462.906 837.027,463.573 835.5,463.5C 835.973,462.094 836.973,461.427 838.5,461.5 Z"/></g>
<g><path style="opacity:1" fill="#797979" d="M 294.5,476.5 C 294.027,477.906 293.027,478.573 291.5,478.5C 291.973,477.094 292.973,476.427 294.5,476.5 Z"/></g>
<g><path style="opacity:1" fill="#848484" d="M 291.5,478.5 C 291.573,480.027 290.906,481.027 289.5,481.5C 289.427,479.973 290.094,478.973 291.5,478.5 Z"/></g>
<g><path style="opacity:1" fill="#343434" d="M 818.5,516.5 C 656.997,516.834 495.664,517.834 334.5,519.5C 333.596,518.791 333.263,517.791 333.5,516.5C 495.167,516.5 656.833,516.5 818.5,516.5 Z"/></g>
<g><path style="opacity:1" fill="#aaaaaa" d="M 340.5,554.5 C 496.264,555.165 651.931,555.832 807.5,556.5C 651.496,557.165 495.83,556.499 340.5,554.5 Z"/></g>
<g><path style="opacity:1" fill="#848484" d="M 840.5,565.5 C 842.23,566.026 843.564,567.026 844.5,568.5C 842.368,568.446 841.035,567.446 840.5,565.5 Z"/></g>
<g><path style="opacity:1" fill="#9e9e9e" d="M 854.5,577.5 C 855.906,577.973 856.573,578.973 856.5,580.5C 855.094,580.027 854.427,579.027 854.5,577.5 Z"/></g>
<g><path style="opacity:1" fill="#858585" d="M 856.5,580.5 C 857.906,580.973 858.573,581.973 858.5,583.5C 857.094,583.027 856.427,582.027 856.5,580.5 Z"/></g>
<g><path style="opacity:1" fill="#a5a5a5" d="M 858.5,583.5 C 859.906,583.973 860.573,584.973 860.5,586.5C 859.094,586.027 858.427,585.027 858.5,583.5 Z"/></g>
<g><path style="opacity:1" fill="#797979" d="M 863.5,593.5 C 864.924,595.515 865.59,597.848 865.5,600.5C 864.076,598.485 863.41,596.152 863.5,593.5 Z"/></g>
<g><path style="opacity:1" fill="#a8a8a8" d="M 817.5,604.5 C 819.5,604.5 820.5,605.5 820.5,607.5C 819.167,606.833 818.167,605.833 817.5,604.5 Z"/></g>
<g><path style="opacity:1" fill="#9c9c9c" d="M 267.5,616.5 C 268.906,616.973 269.573,617.973 269.5,619.5C 268.094,619.027 267.427,618.027 267.5,616.5 Z"/></g>
<g><path style="opacity:1" fill="#888888" d="M 274.5,626.5 C 275.906,626.973 276.573,627.973 276.5,629.5C 275.094,629.027 274.427,628.027 274.5,626.5 Z"/></g>
<g><path style="opacity:1" fill="#797979" d="M 227.5,638.5 C 229.048,638.821 229.715,639.821 229.5,641.5C 228.599,640.71 227.932,639.71 227.5,638.5 Z"/></g>
<g><path style="opacity:1" fill="#707070" d="M 814.5,638.5 C 811.877,640.265 808.877,640.932 805.5,640.5C 808.311,639.525 811.311,638.858 814.5,638.5 Z"/></g>
<g><path style="opacity:1" fill="#848484" d="M 230.5,643.5 C 232.446,644.035 233.446,645.368 233.5,647.5C 232.026,646.564 231.026,645.23 230.5,643.5 Z"/></g>
<g><path style="opacity:1" fill="#969696" d="M 248.5,665.5 C 250.027,665.427 251.027,666.094 251.5,667.5C 249.973,667.573 248.973,666.906 248.5,665.5 Z"/></g>
<g><path style="opacity:1" fill="#7c7c7c" d="M 273.5,684.5 C 272.738,686.262 271.404,687.262 269.5,687.5C 270.262,685.738 271.596,684.738 273.5,684.5 Z"/></g>
<g><path style="opacity:1" fill="#cbcbcb" d="M 665.5,687.5 C 577.833,686.167 490.167,686.167 402.5,687.5C 401.711,687.217 401.044,686.717 400.5,686C 489.833,685.333 579.167,685.333 668.5,686C 667.756,687.039 666.756,687.539 665.5,687.5 Z"/></g>
<g><path style="opacity:1" fill="#d1d1d1" d="M 806.5,685.5 C 802.5,686.167 798.5,686.833 794.5,687.5C 793.711,687.217 793.044,686.717 792.5,686C 797.155,685.501 801.821,685.334 806.5,685.5 Z"/></g>
<g><path style="opacity:1" fill="#767676" d="M 269.5,687.5 C 269.027,688.906 268.027,689.573 266.5,689.5C 266.973,688.094 267.973,687.427 269.5,687.5 Z"/></g>
<g><path style="opacity:1" fill="#777777" d="M 266.5,689.5 C 265.738,691.262 264.404,692.262 262.5,692.5C 263.262,690.738 264.596,689.738 266.5,689.5 Z"/></g>
<g><path style="opacity:1" fill="#575757" d="M 664.5,688.5 C 663.415,690.587 661.749,691.92 659.5,692.5C 660.585,690.413 662.251,689.08 664.5,688.5 Z"/></g>
<g><path style="opacity:1" fill="#797979" d="M 261.5,693.5 C 260.415,695.587 258.749,696.92 256.5,697.5C 257.585,695.413 259.251,694.08 261.5,693.5 Z"/></g>
<g><path style="opacity:1" fill="#8f8f8f" d="M 658.5,693.5 C 657.167,695.5 655.5,697.167 653.5,698.5C 654.167,695.833 655.833,694.167 658.5,693.5 Z"/></g>
<g><path style="opacity:1" fill="#909090" d="M 254.5,699.5 C 254.262,701.404 253.262,702.738 251.5,703.5C 251.738,701.596 252.738,700.262 254.5,699.5 Z"/></g>
<g><path style="opacity:1" fill="#909090" d="M 417.5,700.5 C 418.906,700.973 419.573,701.973 419.5,703.5C 418.094,703.027 417.427,702.027 417.5,700.5 Z"/></g>
<g><path style="opacity:1" fill="#8f8f8f" d="M 812.5,703.5 C 814.262,704.262 815.262,705.596 815.5,707.5C 813.738,706.738 812.738,705.404 812.5,703.5 Z"/></g>
<g><path style="opacity:1" fill="#8b8b8b" d="M 646.5,705.5 C 646.262,707.404 645.262,708.738 643.5,709.5C 643.738,707.596 644.738,706.262 646.5,705.5 Z"/></g>
<g><path style="opacity:1" fill="#8e8e8e" d="M 248.5,706.5 C 248.573,708.027 247.906,709.027 246.5,709.5C 246.427,707.973 247.094,706.973 248.5,706.5 Z"/></g>
<g><path style="opacity:1" fill="#878787" d="M 422.5,706.5 C 423.906,706.973 424.573,707.973 424.5,709.5C 423.094,709.027 422.427,708.027 422.5,706.5 Z"/></g>
<g><path style="opacity:1" fill="#6d6d6d" d="M 352.5,712.5 C 355.152,712.41 357.485,713.076 359.5,714.5C 356.848,714.59 354.515,713.924 352.5,712.5 Z"/></g>
<g><path style="opacity:1" fill="#a2a2a2" d="M 818.5,710.5 C 819.906,710.973 820.573,711.973 820.5,713.5C 819.094,713.027 818.427,712.027 818.5,710.5 Z"/></g>
<g><path style="opacity:1" fill="#858585" d="M 243.5,713.5 C 243.573,715.027 242.906,716.027 241.5,716.5C 241.427,714.973 242.094,713.973 243.5,713.5 Z"/></g>
<g><path style="opacity:1" fill="#7f7f7f" d="M 427.5,713.5 C 428.906,713.973 429.573,714.973 429.5,716.5C 428.094,716.027 427.427,715.027 427.5,713.5 Z"/></g>
<g><path style="opacity:1" fill="#949494" d="M 241.5,716.5 C 241.573,718.027 240.906,719.027 239.5,719.5C 239.427,717.973 240.094,716.973 241.5,716.5 Z"/></g>
<g><path style="opacity:1" fill="#909090" d="M 429.5,716.5 C 430.906,716.973 431.573,717.973 431.5,719.5C 430.094,719.027 429.427,718.027 429.5,716.5 Z"/></g>
<g><path style="opacity:1" fill="#9f9f9f" d="M 368.5,718.5 C 370.027,718.427 371.027,719.094 371.5,720.5C 369.973,720.573 368.973,719.906 368.5,718.5 Z"/></g>
<g><path style="opacity:1" fill="#9f9f9f" d="M 637.5,717.5 C 637.573,719.027 636.906,720.027 635.5,720.5C 635.427,718.973 636.094,717.973 637.5,717.5 Z"/></g>
<g><path style="opacity:1" fill="#a3a3a3" d="M 825.5,720.5 C 826.906,720.973 827.573,721.973 827.5,723.5C 826.094,723.027 825.427,722.027 825.5,720.5 Z"/></g>
<g><path style="opacity:1" fill="#777777" d="M 766.5,722.5 C 768.404,722.738 769.738,723.738 770.5,725.5C 768.596,725.262 767.262,724.262 766.5,722.5 Z"/></g>
<g><path style="opacity:1" fill="#9f9f9f" d="M 634.5,722.5 C 634.573,724.027 633.906,725.027 632.5,725.5C 632.427,723.973 633.094,722.973 634.5,722.5 Z"/></g>
<g><path style="opacity:1" fill="#a3a3a3" d="M 828.5,725.5 C 829.906,725.973 830.573,726.973 830.5,728.5C 829.094,728.027 828.427,727.027 828.5,725.5 Z"/></g>
<g><path style="opacity:1" fill="#7a7a7a" d="M 784.5,740.5 C 786.446,741.035 787.446,742.368 787.5,744.5C 786.026,743.564 785.026,742.23 784.5,740.5 Z"/></g>
<g><path style="opacity:1" fill="#7e7e7e" d="M 392.5,742.5 C 394.048,742.821 394.715,743.821 394.5,745.5C 393.599,744.71 392.932,743.71 392.5,742.5 Z"/></g>
<g><path style="opacity:1" fill="#6a6a6a" d="M 835.5,740.5 C 836.924,742.515 837.59,744.848 837.5,747.5C 836.076,745.485 835.41,743.152 835.5,740.5 Z"/></g>
<g><path style="opacity:1" fill="#757575" d="M 788.5,746.5 C 790.048,746.821 790.715,747.821 790.5,749.5C 789.599,748.71 788.932,747.71 788.5,746.5 Z"/></g>
<g><path style="opacity:1" fill="#757575" d="M 272.5,791.5 C 273.537,792.93 274.204,794.597 274.5,796.5C 272.787,795.365 272.12,793.698 272.5,791.5 Z"/></g>
<g><path style="opacity:1" fill="#757575" d="M 789.5,805.5 C 789.573,807.027 788.906,808.027 787.5,808.5C 787.427,806.973 788.094,805.973 789.5,805.5 Z"/></g>
<g><path style="opacity:1" fill="#969696" d="M 392.5,806.5 C 392.573,808.027 391.906,809.027 390.5,809.5C 390.427,807.973 391.094,806.973 392.5,806.5 Z"/></g>
<g><path style="opacity:1" fill="#8f8f8f" d="M 279.5,807.5 C 280.906,807.973 281.573,808.973 281.5,810.5C 280.094,810.027 279.427,809.027 279.5,807.5 Z"/></g>
<g><path style="opacity:1" fill="#797979" d="M 787.5,808.5 C 787.573,810.027 786.906,811.027 785.5,811.5C 785.427,809.973 786.094,808.973 787.5,808.5 Z"/></g>
<g><path style="opacity:1" fill="#8a8a8a" d="M 390.5,809.5 C 390.573,811.027 389.906,812.027 388.5,812.5C 388.427,810.973 389.094,809.973 390.5,809.5 Z"/></g>
<g><path style="opacity:1" fill="#959595" d="M 675.5,810.5 C 676.906,810.973 677.573,811.973 677.5,813.5C 676.094,813.027 675.427,812.027 675.5,810.5 Z"/></g>
<g><path style="opacity:1" fill="#8c8c8c" d="M 285.5,815.5 C 287.262,816.262 288.262,817.596 288.5,819.5C 286.738,818.738 285.738,817.404 285.5,815.5 Z"/></g>
<g><path style="opacity:1" fill="#818181" d="M 780.5,817.5 C 780.262,819.404 779.262,820.738 777.5,821.5C 777.738,819.596 778.738,818.262 780.5,817.5 Z"/></g>
<g><path style="opacity:1" fill="#999999" d="M 682.5,819.5 C 684.167,820.5 685.5,821.833 686.5,823.5C 684.167,823.167 682.833,821.833 682.5,819.5 Z"/></g>
<g><path style="opacity:1" fill="#888888" d="M 380.5,821.5 C 379.738,823.262 378.404,824.262 376.5,824.5C 377.262,822.738 378.596,821.738 380.5,821.5 Z"/></g>
<g><path style="opacity:1" fill="#858585" d="M 775.5,823.5 C 774.738,825.262 773.404,826.262 771.5,826.5C 772.262,824.738 773.596,823.738 775.5,823.5 Z"/></g>
<g><path style="opacity:1" fill="#8c8c8c" d="M 376.5,824.5 C 376.027,825.906 375.027,826.573 373.5,826.5C 373.973,825.094 374.973,824.427 376.5,824.5 Z"/></g>
<g><path style="opacity:1" fill="#787878" d="M 299.5,827.5 C 300.71,827.932 301.71,828.599 302.5,829.5C 300.821,829.715 299.821,829.048 299.5,827.5 Z"/></g>
<g><path style="opacity:1" fill="#797979" d="M 239.5,829.5 C 241.048,829.821 241.715,830.821 241.5,832.5C 240.599,831.71 239.932,830.71 239.5,829.5 Z"/></g>
<g><path style="opacity:1" fill="#7a7a7a" d="M 243.5,835.5 C 245.446,836.035 246.446,837.368 246.5,839.5C 245.026,838.564 244.026,837.23 243.5,835.5 Z"/></g>
<g><path style="opacity:1" fill="#8d8d8d" d="M 258.5,853.5 C 260.404,853.738 261.738,854.738 262.5,856.5C 260.596,856.262 259.262,855.262 258.5,853.5 Z"/></g>
<g><path style="opacity:1" fill="#8d8d8d" d="M 654.5,856.5 C 656.404,856.738 657.738,857.738 658.5,859.5C 656.596,859.262 655.262,858.262 654.5,856.5 Z"/></g>
<g><path style="opacity:1" fill="#8b8b8b" d="M 264.5,858.5 C 266.027,858.427 267.027,859.094 267.5,860.5C 265.973,860.573 264.973,859.906 264.5,858.5 Z"/></g>
<g><path style="opacity:1" fill="#767676" d="M 659.5,860.5 C 661.404,860.738 662.738,861.738 663.5,863.5C 661.596,863.262 660.262,862.262 659.5,860.5 Z"/></g>
<g><path style="opacity:1" fill="#848484" d="M 271.5,863.5 C 273.027,863.427 274.027,864.094 274.5,865.5C 272.973,865.573 271.973,864.906 271.5,863.5 Z"/></g>
<g><path style="opacity:1" fill="#767676" d="M 663.5,863.5 C 665.027,863.427 666.027,864.094 666.5,865.5C 664.973,865.573 663.973,864.906 663.5,863.5 Z"/></g>
<g><path style="opacity:1" fill="#909090" d="M 274.5,865.5 C 276.027,865.427 277.027,866.094 277.5,867.5C 275.973,867.573 274.973,866.906 274.5,865.5 Z"/></g>
<g><path style="opacity:1" fill="#8a8a8a" d="M 669.5,867.5 C 671.027,867.427 672.027,868.094 672.5,869.5C 670.973,869.573 669.973,868.906 669.5,867.5 Z"/></g>
<g><path style="opacity:1" fill="#a7a7a7" d="M 674.5,870.5 C 676.027,870.427 677.027,871.094 677.5,872.5C 675.973,872.573 674.973,871.906 674.5,870.5 Z"/></g>
<g><path style="opacity:1" fill="#757575" d="M 693.5,879.5 C 695.698,879.12 697.365,879.787 698.5,881.5C 696.597,881.204 694.93,880.537 693.5,879.5 Z"/></g>
<g><path style="opacity:1" fill="#787878" d="M 700.5,881.5 C 703.152,881.41 705.485,882.076 707.5,883.5C 704.848,883.59 702.515,882.924 700.5,881.5 Z"/></g>
</svg>
